<svg xmlns="http://www.w3.org/2000/svg" xmlns:xlink="http://www.w3.org/1999/xlink" version="1.1" width="256" height="256" viewBox="0 0 256 256" xml:space="preserve">

<defs>
</defs>
<g style="stroke: none; stroke-width: 0; stroke-dasharray: none; stroke-linecap: butt; stroke-linejoin: miter; stroke-miterlimit: 10; fill: none; fill-rule: nonzero; opacity: 1;" transform="translate(1.4065934065934016 1.4065934065934016) scale(2.81 2.81)" >
	<path d="M 83.46 17.68 h -21.7 V 9.245 c 0 -2.168 -1.765 -3.933 -3.934 -3.933 H 32.173 c -2.169 0 -3.933 1.764 -3.933 3.933 v 8.435 H 6.54 C 2.934 17.68 0 20.614 0 24.22 v 32.87 c 0 2.273 1.154 4.283 2.933 5.457 v 16.979 c 0 2.846 2.315 5.161 5.162 5.161 h 73.811 c 2.846 0 5.161 -2.315 5.161 -5.161 V 62.547 C 88.846 61.373 90 59.363 90 57.09 V 24.22 C 90 20.614 87.066 17.68 83.46 17.68 z M 30.24 9.245 c 0 -1.065 0.867 -1.933 1.933 -1.933 h 25.653 c 1.066 0 1.934 0.867 1.934 1.933 v 8.435 h -3.642 v -4.758 c 0 -1.06 -0.862 -1.923 -1.923 -1.923 H 35.805 c -1.061 0 -1.923 0.863 -1.923 1.923 v 4.758 H 30.24 V 9.245 z M 54.118 17.68 H 35.881 V 13 h 18.237 V 17.68 z M 85.066 79.526 c 0 1.743 -1.418 3.161 -3.161 3.161 H 8.095 c -1.743 0 -3.162 -1.418 -3.162 -3.161 V 63.424 c 0.306 0.077 0.618 0.139 0.94 0.173 l 33.687 3.451 v 0.795 c 0 2.999 2.44 5.439 5.439 5.439 c 2.999 0 5.439 -2.44 5.439 -5.439 v -0.795 l 33.688 -3.451 c 0.322 -0.033 0.634 -0.096 0.939 -0.172 V 79.526 z M 41.561 67.843 v -6.704 c 0 -1.896 1.543 -3.439 3.439 -3.439 s 3.439 1.543 3.439 3.439 v 6.704 c 0 1.896 -1.543 3.439 -3.439 3.439 S 41.561 69.739 41.561 67.843 z M 88 57.09 c 0 2.337 -1.753 4.278 -4.077 4.517 l -33.483 3.43 v -3.898 c 0 -2.999 -2.44 -5.439 -5.439 -5.439 c -3 0 -5.439 2.44 -5.439 5.439 v 3.898 l -33.483 -3.43 C 3.753 61.368 2 59.427 2 57.09 V 24.22 c 0 -2.503 2.037 -4.54 4.54 -4.54 h 22.7 h 5.641 h 20.237 h 5.642 h 22.7 c 2.503 0 4.54 2.037 4.54 4.54 V 57.09 z" style="stroke: none; stroke-width: 1; stroke-dasharray: none; stroke-linecap: butt; stroke-linejoin: miter; stroke-miterlimit: 10; fill: rgb(0,0,0); fill-rule: nonzero; opacity: 1;" transform=" matrix(1 0 0 1 0 0) " stroke-linecap="round" />
</g>
</svg>