<svg width="20" height="20" viewBox="0 0 20 20" fill="none" xmlns="http://www.w3.org/2000/svg">
<path fill-rule="evenodd" clip-rule="evenodd" d="M14.5833 12.4999C14.2065 12.4999 13.6741 12.552 13.1198 12.6279C12.8609 12.6634 12.6634 12.8608 12.628 13.1198C12.5521 13.674 12.5 14.2064 12.5 14.5833C12.5 14.9601 12.5521 15.4925 12.628 16.0467C12.6634 16.3057 12.8609 16.5031 13.1198 16.5386C13.6741 16.6145 14.2065 16.6666 14.5833 16.6666C14.9601 16.6666 15.4925 16.6145 16.0468 16.5386C16.3057 16.5031 16.5032 16.3057 16.5387 16.0467C16.6146 15.4925 16.6666 14.9601 16.6666 14.5833C16.6666 14.2064 16.6146 13.674 16.5387 13.1198C16.5032 12.8608 16.3057 12.6634 16.0468 12.6279C15.4925 12.552 14.9601 12.4999 14.5833 12.4999ZM12.8937 10.9767C11.8938 11.1136 11.1137 11.8937 10.9767 12.8936C10.8982 13.4671 10.8333 14.0901 10.8333 14.5833C10.8333 15.0765 10.8982 15.6994 10.9767 16.2729C11.1137 17.2728 11.8938 18.0529 12.8937 18.1898C13.4672 18.2684 14.0901 18.3333 14.5833 18.3333C15.0765 18.3333 15.6994 18.2684 16.273 18.1898C17.2729 18.0529 18.053 17.2728 18.1899 16.2729C18.2684 15.6994 18.3333 15.0765 18.3333 14.5833C18.3333 14.0901 18.2684 13.4671 18.1899 12.8936C18.053 11.8937 17.2729 11.1136 16.273 10.9767C15.6994 10.8981 15.0765 10.8333 14.5833 10.8333C14.0901 10.8333 13.4672 10.8981 12.8937 10.9767Z" fill="#5F6165"/>
<path fill-rule="evenodd" clip-rule="evenodd" d="M5.41669 12.4999C5.03987 12.4999 4.50746 12.552 3.9532 12.6279C3.69426 12.6634 3.49681 12.8608 3.46135 13.1198C3.38544 13.674 3.33335 14.2064 3.33335 14.5833C3.33335 14.9601 3.38544 15.4925 3.46135 16.0467C3.49681 16.3057 3.69426 16.5031 3.9532 16.5386C4.50746 16.6145 5.03987 16.6666 5.41669 16.6666C5.7935 16.6666 6.32592 16.6145 6.88018 16.5386C7.13912 16.5031 7.33656 16.3057 7.37202 16.0467C7.44793 15.4925 7.50002 14.9601 7.50002 14.5833C7.50002 14.2064 7.44793 13.674 7.37202 13.1198C7.33656 12.8608 7.13912 12.6634 6.88018 12.6279C6.32592 12.552 5.7935 12.4999 5.41669 12.4999ZM3.72705 10.9767C2.72713 11.1136 1.94704 11.8937 1.8101 12.8936C1.73155 13.4671 1.66669 14.0901 1.66669 14.5833C1.66669 15.0765 1.73155 15.6994 1.8101 16.2729C1.94704 17.2728 2.72713 18.0529 3.72705 18.1898C4.30056 18.2684 4.92349 18.3333 5.41669 18.3333C5.90989 18.3333 6.53282 18.2684 7.10632 18.1898C8.10624 18.0529 8.88633 17.2728 9.02328 16.2729C9.10182 15.6994 9.16669 15.0765 9.16669 14.5833C9.16669 14.0901 9.10182 13.4671 9.02328 12.8936C8.88633 11.8937 8.10624 11.1136 7.10632 10.9767C6.53282 10.8981 5.90989 10.8333 5.41669 10.8333C4.92349 10.8333 4.30056 10.8981 3.72705 10.9767Z" fill="#5F6165"/>
<path fill-rule="evenodd" clip-rule="evenodd" d="M14.5833 3.33341C14.2065 3.33341 13.6741 3.3855 13.1198 3.46141C12.8609 3.49687 12.6634 3.69432 12.628 3.95326C12.5521 4.50752 12.5 5.03993 12.5 5.41675C12.5 5.79357 12.5521 6.32598 12.628 6.88024C12.6634 7.13918 12.8609 7.33662 13.1198 7.37209C13.6741 7.44799 14.2065 7.50008 14.5833 7.50008C14.9601 7.50008 15.4925 7.44799 16.0468 7.37209C16.3057 7.33662 16.5032 7.13918 16.5387 6.88024C16.6146 6.32598 16.6666 5.79357 16.6666 5.41675C16.6666 5.03993 16.6146 4.50752 16.5387 3.95326C16.5032 3.69432 16.3057 3.49687 16.0468 3.46141C15.4925 3.3855 14.9601 3.33341 14.5833 3.33341ZM12.8937 1.81016C11.8938 1.9471 11.1137 2.72719 10.9767 3.72711C10.8982 4.30062 10.8333 4.92355 10.8333 5.41675C10.8333 5.90995 10.8982 6.53288 10.9767 7.10639C11.1137 8.1063 11.8938 8.8864 12.8937 9.02334C13.4672 9.10188 14.0901 9.16675 14.5833 9.16675C15.0765 9.16675 15.6994 9.10188 16.273 9.02334C17.2729 8.8864 18.053 8.1063 18.1899 7.10639C18.2684 6.53288 18.3333 5.90995 18.3333 5.41675C18.3333 4.92355 18.2684 4.30062 18.1899 3.72711C18.053 2.72719 17.2729 1.9471 16.273 1.81016C15.6994 1.73161 15.0765 1.66675 14.5833 1.66675C14.0901 1.66675 13.4672 1.73161 12.8937 1.81016Z" fill="#5F6165"/>
<path fill-rule="evenodd" clip-rule="evenodd" d="M5.41669 3.33341C5.03987 3.33341 4.50746 3.3855 3.9532 3.46141C3.69426 3.49687 3.49681 3.69432 3.46135 3.95326C3.38544 4.50752 3.33335 5.03993 3.33335 5.41675C3.33335 5.79357 3.38544 6.32598 3.46135 6.88024C3.49681 7.13918 3.69426 7.33662 3.9532 7.37209C4.50746 7.44799 5.03987 7.50008 5.41669 7.50008C5.7935 7.50008 6.32592 7.44799 6.88018 7.37209C7.13912 7.33662 7.33656 7.13918 7.37202 6.88024C7.44793 6.32598 7.50002 5.79357 7.50002 5.41675C7.50002 5.03993 7.44793 4.50752 7.37202 3.95326C7.33656 3.69432 7.13912 3.49687 6.88018 3.46141C6.32592 3.3855 5.7935 3.33341 5.41669 3.33341ZM3.72705 1.81016C2.72713 1.9471 1.94704 2.72719 1.8101 3.72711C1.73155 4.30062 1.66669 4.92355 1.66669 5.41675C1.66669 5.90995 1.73155 6.53288 1.8101 7.10639C1.94704 8.1063 2.72713 8.8864 3.72705 9.02334C4.30056 9.10188 4.92349 9.16675 5.41669 9.16675C5.90989 9.16675 6.53282 9.10188 7.10632 9.02334C8.10624 8.8864 8.88633 8.1063 9.02328 7.10639C9.10182 6.53288 9.16669 5.90995 9.16669 5.41675C9.16669 4.92355 9.10182 4.30062 9.02328 3.72711C8.88633 2.72719 8.10624 1.9471 7.10632 1.81016C6.53282 1.73161 5.90989 1.66675 5.41669 1.66675C4.92349 1.66675 4.30056 1.73161 3.72705 1.81016Z" fill="#5F6165"/>
</svg>
