<svg width="20" height="20" viewBox="0 0 20 20" fill="none" xmlns="http://www.w3.org/2000/svg">
<path fill-rule="evenodd" clip-rule="evenodd" d="M9.19101 12.5006C9.65092 12.4833 10.0378 12.842 10.0552 13.3019C10.0943 14.3388 10.1493 15.0955 10.2034 15.6381C10.2566 16.1724 10.5792 16.4939 11.0288 16.5489C11.559 16.6137 12.307 16.6667 13.3333 16.6667C14.3597 16.6667 15.1077 16.6137 15.6379 16.5488C16.0873 16.4939 16.4101 16.1723 16.4633 15.6378C16.5636 14.6307 16.6667 12.8907 16.6667 10C16.6667 7.10936 16.5636 5.36938 16.4633 4.36227C16.4101 3.82781 16.0873 3.50618 15.6379 3.45124C15.1077 3.38642 14.3597 3.33337 13.3333 3.33337C12.307 3.33337 11.559 3.38642 11.0288 3.45123C10.5792 3.5062 10.2566 3.82769 10.2034 4.36202C10.1493 4.90458 10.0943 5.66132 10.0552 6.69814C10.0378 7.15805 9.65092 7.51681 9.19101 7.49945C8.7311 7.48208 8.37234 7.09518 8.3897 6.63527C8.42988 5.57108 8.48684 4.77956 8.54489 4.1968C8.66694 2.97166 9.52111 1.95646 10.8266 1.79688C11.4342 1.72259 12.2507 1.66671 13.3333 1.66671C14.416 1.66671 15.2325 1.7226 15.8401 1.79689C17.1457 1.95649 17.9997 2.97216 18.1218 4.19706C18.2292 5.27561 18.3333 7.07377 18.3333 10C18.3333 12.9263 18.2292 14.7245 18.1218 15.803C17.9997 17.0279 17.1457 18.0436 15.8401 18.2032C15.2325 18.2775 14.416 18.3334 13.3333 18.3334C12.2507 18.3334 11.4343 18.2775 10.8266 18.2032C9.52111 18.0436 8.66694 17.0284 8.54489 15.8033C8.48684 15.2205 8.42988 14.429 8.3897 13.3648C8.37234 12.9049 8.7311 12.518 9.19101 12.5006Z" fill="#5F6165"/>
<path fill-rule="evenodd" clip-rule="evenodd" d="M6.00594 12.3274C6.33138 12.6528 6.33138 13.1805 6.00594 13.5059C5.68051 13.8314 5.15287 13.8314 4.82743 13.5059L1.91076 10.5893C1.58533 10.2638 1.58533 9.73618 1.91076 9.41074L4.82743 6.49408C5.15287 6.16864 5.68051 6.16864 6.00594 6.49408C6.33138 6.81951 6.33138 7.34715 6.00594 7.67259L4.51186 9.16667H12.5C12.9603 9.16667 13.3334 9.53976 13.3334 10C13.3334 10.4602 12.9603 10.8333 12.5 10.8333L4.51186 10.8333L6.00594 12.3274Z" fill="#5F6165"/>
</svg>
