<svg width="20" height="20" viewBox="0 0 20 20" fill="none" xmlns="http://www.w3.org/2000/svg">
<path d="M18.3327 8.33342V10.8334C18.3327 14.1667 16.666 15.8334 13.3327 15.8334H12.916C12.6577 15.8334 12.4077 15.9584 12.2493 16.1667L10.9993 17.8334C10.4493 18.5667 9.54935 18.5667 8.99935 17.8334L7.74935 16.1667C7.61602 15.9834 7.30768 15.8334 7.08268 15.8334H6.66602C3.33268 15.8334 1.66602 15.0001 1.66602 10.8334V6.66675C1.66602 3.33341 3.33268 1.66675 6.66602 1.66675H11.666" stroke="#5F6165" stroke-width="1.5" stroke-miterlimit="10" stroke-linecap="round" stroke-linejoin="round"/>
<path d="M16.2493 5.83341C17.3999 5.83341 18.3327 4.90067 18.3327 3.75008C18.3327 2.59949 17.3999 1.66675 16.2493 1.66675C15.0988 1.66675 14.166 2.59949 14.166 3.75008C14.166 4.90067 15.0988 5.83341 16.2493 5.83341Z" stroke="#5F6165" stroke-width="1.5" stroke-linecap="round" stroke-linejoin="round"/>
<path d="M13.3301 9.16667H13.3375" stroke="#5F6165" stroke-width="2" stroke-linecap="round" stroke-linejoin="round"/>
<path d="M9.99607 9.16667H10.0036" stroke="#5F6165" stroke-width="2" stroke-linecap="round" stroke-linejoin="round"/>
<path d="M6.66209 9.16667H6.66957" stroke="#5F6165" stroke-width="2" stroke-linecap="round" stroke-linejoin="round"/>
</svg>
