<svg width="20" height="20" viewBox="0 0 20 20" fill="none" xmlns="http://www.w3.org/2000/svg">
<path d="M12.5156 15.8831C12.5156 17.2581 11.3906 18.3831 10.0156 18.3831C9.33229 18.3831 8.69896 18.0997 8.24896 17.6497C7.79896 17.1997 7.51562 16.5664 7.51562 15.8831" stroke="#FFFFFF" stroke-width="1.5" stroke-miterlimit="10"/>
<path d="M10.0175 2.42505C7.25914 2.42505 5.01747 4.66672 5.01747 7.42505V9.83338C5.01747 10.3417 4.80081 11.1167 4.54247 11.55L3.58414 13.1417C2.99247 14.125 3.40081 15.2167 4.48414 15.5834C8.07581 16.7834 11.9508 16.7834 15.5425 15.5834C16.5508 15.2501 16.9925 14.0584 16.4425 13.1417L15.4841 11.55C15.2341 11.1167 15.0175 10.3417 15.0175 9.83338V7.42505C15.0175 4.67505 12.7675 2.42505 10.0175 2.42505Z" stroke="#FFFFFF" stroke-width="1.5" stroke-miterlimit="10" stroke-linecap="round"/>
<path d="M11.5579 2.66694C11.2996 2.59194 11.0329 2.53361 10.7579 2.50028C9.95794 2.40028 9.19128 2.45861 8.47461 2.66694C8.71628 2.05028 9.31628 1.61694 10.0163 1.61694C10.7163 1.61694 11.3163 2.05028 11.5579 2.66694Z" stroke="#FFFFFF" stroke-width="1.5" stroke-miterlimit="10" stroke-linecap="round" stroke-linejoin="round"/>
</svg>
